<svg width="540" height="122" viewBox="0 0 540 122" fill="none" xmlns="http://www.w3.org/2000/svg">
<path d="M115.377 4.90833C112.879 4.90833 110.845 6.88848 110.845 9.32848C110.845 6.88848 108.81 4.90833 106.312 4.90833C108.81 4.90833 110.845 2.93756 110.845 0.497559C110.845 2.93756 112.879 4.90833 115.377 4.90833Z" fill="white"/>
<path d="M94.4228 10.1541C93.8828 10.1541 93.4393 9.73179 93.4393 9.20625C93.4393 8.68072 93.8828 8.24902 94.4228 8.24902C94.9628 8.24902 95.4064 8.68072 95.4064 9.20625C95.4064 9.73179 94.9628 10.1541 94.4228 10.1541Z" fill="white"/>
<path d="M106.602 14.6401C106.1 14.6401 105.695 14.2553 105.695 13.7767C105.695 13.2887 106.1 12.8945 106.602 12.8945C107.103 12.8945 107.508 13.2887 107.508 13.7767C107.508 14.2553 107.103 14.6401 106.602 14.6401Z" fill="white"/>
<path d="M86.6893 6.32528C86.2843 6.32528 85.9564 6.01559 85.9564 5.62143C85.9564 5.22728 86.2843 4.9082 86.6893 4.9082C87.0943 4.9082 87.4221 5.22728 87.4221 5.62143C87.4221 6.01559 87.0846 6.32528 86.6893 6.32528Z" fill="white"/>
<path d="M93.0439 2.6653C92.4268 2.6653 91.9254 2.18668 91.9254 1.59545C91.9254 0.994836 92.4268 0.506836 93.0439 0.506836C93.6611 0.506836 94.1625 0.994836 94.1625 1.59545C94.1625 2.18668 93.6611 2.6653 93.0439 2.6653Z" fill="white"/>
<path d="M132.493 56.0544C131.133 51.7093 129.32 47.5613 127.112 43.6573C119.967 31.0444 108.627 21.0028 94.9436 15.2782C90.9129 17.5681 88.9843 19.9236 88.8782 20.055C88.9361 19.9236 90.1897 17.1458 93.8539 14.8371C95.3968 13.8705 97.3639 12.979 99.8421 12.3971C97.3736 12.9227 94.9532 13.5702 92.5907 14.3491C83.4879 17.3053 75.2143 22.0164 68.1846 28.0601C68.2907 27.8348 73.6714 21.6598 82.0511 17.1927C69.9879 17.4367 49.5354 28.3135 47.3946 29.4678C49.5354 28.107 70.0071 15.4565 89.4954 13.2699C83.0636 11.2147 76.2171 10.0791 69.0814 10.0322C32.9882 9.7976 2.97963 37.9045 1.89963 73.0218C1.6007 82.6504 3.47142 91.8285 7.04892 100.134C7.05856 100.153 7.06821 100.171 7.07785 100.19C8.28321 102.977 9.69106 105.671 11.2725 108.252C11.2725 108.252 11.2821 108.252 11.2821 108.261C13.7121 112.24 16.5857 115.947 19.8161 119.307C21.7639 121.334 24.8979 121.897 27.3761 120.536C27.3954 120.527 27.405 120.517 27.4243 120.508C28.9382 119.654 30.2304 118.434 31.1368 116.914C31.7443 115.891 32.3904 114.802 33.0171 113.704C35.6882 109.068 39.1114 96.8118 40.0564 94.5031C40.9918 92.1851 41.7536 90.4959 42.4671 89.8296C43.1904 89.1633 45.5721 82.9507 46.1507 81.4304C46.7293 79.9101 46.3918 79.7693 45.2346 78.9716C44.0775 78.1739 42.8046 78.1082 42.2743 78.5211C41.7439 78.9435 39.6514 79.5535 38.1664 79.3658C36.6718 79.1781 35.4761 79.6473 34.4828 80.0133C33.4993 80.3887 33.1618 80.4356 32.13 80.5294C31.0982 80.6233 29.4686 82.0498 28.9575 82.2187C28.6779 82.3125 28.08 82.2468 27.6171 82.1624L13.8857 87.5773L15.39 89.5762C15.6503 89.9235 15.39 90.4115 14.9464 90.4021L12.0921 90.3364L10.4239 92.5887C10.1636 92.9453 9.60428 92.8515 9.47892 92.4385L8.64963 89.7733L5.93035 88.9193C5.50606 88.7879 5.41928 88.2436 5.78571 87.9996L8.12892 86.4136L8.11928 83.6358C8.11928 83.2041 8.62071 82.9601 8.97749 83.2228L11.2532 84.9027L13.9628 84.0393C14.3871 83.8985 14.7825 84.2927 14.6378 84.7056L13.9146 86.7045L27.9739 81.1582C28.3307 80.8391 28.6971 80.5201 28.8804 80.323C29.3143 79.8538 29.5746 78.7558 28.8129 79.1311C28.0414 79.5065 26.9325 79.8162 26.3346 79.5816C25.7271 79.347 25.8525 78.9998 26.9325 78.5962C28.0125 78.2021 32.0529 75.8841 34.56 75.0207C37.0575 74.1573 39.0632 74.8799 40.6639 74.7204C41.4739 74.6359 41.5896 73.3408 43.2675 73.4628C44.9454 73.5848 44.8007 72.759 46.0254 73.0593C47.25 73.3596 59.4771 77.1041 68.0786 83.2885C68.0786 83.2885 69.93 81.9278 70.3929 80.8298C70.8461 79.7318 71.28 78.7464 72.0225 77.5545C72.765 76.3627 73.3243 76.8131 73.1796 75.4055C73.035 74.0071 72.4564 73.2001 72.4564 71.8487C72.4564 70.4879 72.2443 69.7841 71.5211 69.2304C70.7979 68.6673 68.2521 66.9781 64.8868 66.0208C61.5214 65.0636 62.2639 61.657 62.4857 61.1127C62.6979 60.559 63.0354 59.9208 62.8618 59.3578C62.6786 58.7947 62.2446 58.5976 62.3218 58.2035C62.3989 57.7999 62.91 57.5371 62.9871 57.1148C63.0546 56.6925 62.8136 55.2191 63.2571 54.5998C63.7007 53.9804 64.2986 53.8959 64.2311 53.4079C64.1539 52.9105 63.4982 52.2911 63.7682 51.3996C64.0479 50.5081 64.4336 50.1139 65.7836 49.9544C67.1336 49.7948 69.2936 49.457 69.8721 47.139C70.4507 44.821 69.7275 43.1599 69.9975 41.7804C70.2675 40.4008 70.4604 39.8847 71.8971 38.5521C73.3436 37.2101 75.2143 35.1548 77.0175 34.6856C78.8304 34.2164 82.5236 35.4176 84.5004 35.0422C86.4771 34.6668 86.8339 34.6199 88.4539 35.2111C90.0643 35.793 91.1443 36.5438 92.3207 36.5907C93.4971 36.6376 94.8279 36.8722 95.9079 37.5479C96.9879 38.233 98.0679 39.1621 98.6946 39.4248C99.3214 39.6782 99.8711 39.9128 100.508 40.6167C101.134 41.3205 102.166 41.9681 102.754 42.869C103.352 43.7699 104.124 44.8679 104.413 45.6468C104.702 46.4258 104.721 46.6791 105.194 47.0358C105.657 47.383 106.486 48.4247 107.045 48.5561C107.605 48.6968 107.595 48.6687 109.369 47.6364C111.144 46.6041 112.33 46.2568 113.342 46.163C114.345 46.0691 115.888 44.3611 116.11 43.6573C116.11 43.6573 116.023 44.6427 115.724 44.9242C115.888 44.8773 118.761 44.0702 120.025 46.1161C121.326 48.2182 121.288 48.2933 121.683 49.4195C122.079 50.5456 121.934 51.8407 121.355 52.5445C120.777 53.2484 120.16 53.7364 120.526 54.6185C120.893 55.5007 121.394 57.2838 121.028 58.8979C120.671 60.5121 119.552 61.8165 118.694 62.4171C117.845 63.0084 118.636 62.9708 117.595 63.2711C116.544 63.5715 115.377 63.7216 115.705 64.2378C116.023 64.7633 116.659 64.463 117.228 65.0824C117.807 65.7018 118.299 65.9833 119.128 65.8144C119.957 65.6548 120.671 64.5662 121.056 64.7727C121.442 64.9791 120.285 66.8373 118.704 66.7528C117.113 66.659 116.592 65.927 115.811 65.8519C115.03 65.7862 113.911 65.9364 114.509 66.5745C115.116 67.2221 115.676 67.8415 114.981 67.7945C114.287 67.7476 112.503 65.8895 111.182 65.8707C109.861 65.8613 106.341 66.0208 106.554 65.0261C106.766 64.0219 108.665 63.3275 109.128 63.1491C109.601 62.9708 108.357 62.3984 108.636 62.023C108.926 61.6476 110.391 61.2347 110.121 60.8311C109.851 60.4276 109.167 60.4651 109.273 60.1273C109.379 59.7895 109.716 59.8176 109.716 59.5267C109.716 59.2451 109.013 59.0575 109.244 58.7196C109.485 58.3818 110.295 57.6967 110.42 56.1764C110.546 54.6467 109.986 52.3944 108.106 52.4131C106.235 52.4319 106.38 53.1358 106.756 53.7645C107.132 54.3933 108.077 55.3975 106.583 58.4005C105.088 61.3942 103.42 63.3838 101.076 64.8947C98.7332 66.4056 99.7072 66.8936 98.2993 67.3535C96.8914 67.8133 95.7729 69.0708 94.5097 69.8873C93.4586 70.563 92.4075 71.7924 92.0025 73.8852C99.495 73.3408 100.479 78.3241 100.585 80.1728C100.604 80.4075 100.893 80.5107 101.057 80.3418C103.352 77.8267 113.506 67.1376 118.038 69.4368C123.13 71.9988 115.618 80.7078 115.618 80.7078C117.064 80.323 119.591 80.5295 119.34 82.5753C119.089 84.6118 115.483 90.9276 112.523 91.2467C109.562 91.5564 106.901 86.6388 105.493 88.4407C104.586 89.595 105.994 92.3635 107.113 94.231C108.231 96.0985 108.482 100.547 106.824 100.021C105.165 99.4958 103.179 97.8065 102.533 95.8451C102.118 94.597 101.52 94.6533 101.308 94.719C101.096 94.7847 101.163 95.4885 101.453 96.7179C101.742 97.9473 102.282 100.228 102.764 103.409C103.246 106.591 104.5 114.868 107.547 117.007C109.485 118.359 111.009 119.607 112.195 120.733L112.214 120.752C113.284 121.765 115.001 121.756 116.061 120.724C128.009 108.984 135.395 92.8327 135.395 75.0019C135.386 68.4045 134.383 62.0418 132.493 56.0544ZM56.0636 21.5753C55.6875 21.5753 55.3789 21.2844 55.3789 20.9184C55.3789 20.5524 55.6875 20.2708 56.0636 20.2708C56.4396 20.2708 56.7482 20.5618 56.7482 20.9184C56.7482 21.2844 56.4396 21.5753 56.0636 21.5753ZM58.3779 12.5942C58.86 12.5942 59.2457 12.979 59.2457 13.4388C59.2457 13.8987 58.8504 14.2928 58.3779 14.2928C57.8957 14.2928 57.5004 13.8987 57.5004 13.4388C57.5004 12.979 57.8861 12.5942 58.3779 12.5942ZM76.5739 13.4482C73.3821 13.7391 70.2096 14.1896 67.0757 14.7996C64.4529 15.3064 61.8686 15.9258 59.3036 16.639C58.2814 16.9299 57.2593 17.2396 56.2468 17.5587C55.7454 17.7182 55.2343 17.8871 54.7329 18.0561C53.73 18.4033 52.7271 18.7599 51.7339 19.1353C59.7761 15.2031 68.0111 13.6453 76.5739 13.4482ZM11.1857 65.5141C10.4528 65.5141 9.87428 64.9416 9.87428 64.2471C9.87428 63.5433 10.4625 62.9802 11.1857 62.9802C11.9089 62.9802 12.4875 63.5527 12.4875 64.2471C12.4875 64.951 11.9089 65.5141 11.1857 65.5141ZM21.2721 37.9233C21.6386 37.9233 21.9375 38.2142 21.9375 38.5708C21.9375 38.9275 21.6386 39.2184 21.2721 39.2184C20.9057 39.2184 20.6068 38.9275 20.6068 38.5708C20.6068 38.2236 20.9154 37.9233 21.2721 37.9233ZM20.4043 57.2275C20.4043 55.313 18.8132 53.7645 16.8557 53.7645C18.8132 53.7645 20.4043 52.2161 20.4043 50.311C20.4043 52.2255 22.005 53.7645 23.9529 53.7645C22.005 53.7739 20.4043 55.3224 20.4043 57.2275ZM40.6446 27.4595C41.2232 27.4595 41.6861 27.9193 41.6861 28.473C41.6861 29.0361 41.2136 29.4959 40.6446 29.4959C40.0564 29.4959 39.5936 29.0361 39.5936 28.473C39.5936 27.9193 40.0564 27.4595 40.6446 27.4595ZM28.6875 31.7858C28.0993 31.7858 27.6268 31.3259 27.6268 30.7535C27.6268 30.181 28.0993 29.7118 28.6875 29.7118C29.2757 29.7118 29.7482 30.181 29.7482 30.7535C29.7482 31.3259 29.2757 31.7858 28.6875 31.7858ZM41.4932 48.8564C41.1075 49.8887 40.8086 50.9304 39.9407 50.9491C39.9407 50.9491 40.5096 53.8959 37.8386 55.3505C37.7036 55.4162 37.5493 55.3318 37.5396 55.1816C37.5107 54.6561 37.4914 53.5675 37.7229 52.873C37.7421 52.8448 37.6939 52.8167 37.6746 52.8448C37.2696 53.2671 35.7943 54.7311 34.9939 54.6936C34.0489 54.6561 34.0682 53.6519 33.8657 53.5487C33.6536 53.4455 33.7886 53.0231 33.5475 52.8542C33.3064 52.6853 33.0846 52.2911 33.1907 52.0659C33.2968 51.8313 33.1907 51.3902 33.2293 51.1462C33.2679 50.9022 33.7404 51.287 33.7693 50.4705C33.7982 49.6541 34.2321 49.1848 35.4279 49.2224C35.4279 49.2224 34.2611 49.0159 34.3575 48.0493C34.4443 47.0827 34.8879 46.5478 34.8879 45.7782C34.8975 45.0181 34.5986 42.2778 35.5436 42.2402C36.4886 42.2027 38.7354 46.5196 38.8511 48.603C38.8511 48.603 39.2464 48.1995 39.3525 48.2745C39.4586 48.3496 39.3043 48.847 39.3043 48.847C39.3043 48.847 42.6214 45.0462 43.1904 45.4216C43.7496 45.8064 41.8693 47.8241 41.4932 48.8564ZM45.5818 66.4713C45.5818 65.0918 44.4246 63.9656 43.0168 63.9656C44.4343 63.9656 45.5818 62.8488 45.5818 61.4693C45.5818 62.8488 46.7293 63.9656 48.1468 63.9656C46.7293 63.9656 45.5818 65.0824 45.5818 66.4713ZM55.6489 48.603C55.2054 48.603 54.8582 48.2558 54.8582 47.8335C54.8582 47.4018 55.2054 47.0545 55.6489 47.0545C56.0925 47.0545 56.4493 47.4018 56.4493 47.8335C56.4493 48.2558 56.0925 48.603 55.6489 48.603ZM40.2878 44.2767C48.0889 34.0099 57.24 28.473 68.1654 24.691C57.5486 29.1581 48.0021 35.9056 40.2878 44.2767ZM81.8871 28.7451C81.1157 28.7451 80.4793 28.1351 80.4793 27.375C80.4793 26.6336 81.1061 26.0236 81.8871 26.0236C82.6682 26.0236 83.295 26.6336 83.295 27.375C83.295 28.1445 82.6682 28.7451 81.8871 28.7451ZM99.6204 26.033C99.0514 26.033 98.5789 25.5825 98.5789 25.0288C98.5789 24.4658 99.0514 24.0059 99.6204 24.0059C100.199 24.0059 100.671 24.4658 100.671 25.0288C100.671 25.5825 100.199 26.033 99.6204 26.033ZM109.948 37.6511C109.948 36.1402 108.685 34.9202 107.142 34.9202C108.685 34.9202 109.948 33.7002 109.948 32.1893C109.948 33.7002 111.211 34.9202 112.754 34.9202C111.211 34.9108 109.948 36.1402 109.948 37.6511ZM119.186 97.2341C118.549 97.2341 118.029 96.7273 118.029 96.1079C118.029 95.4885 118.54 94.9818 119.186 94.9818C119.822 94.9818 120.343 95.4791 120.343 96.1079C120.343 96.7273 119.822 97.2341 119.186 97.2341ZM124.914 56.1013C125.618 55.6227 125.781 54.6936 125.299 54.0085C125.791 54.6936 126.755 54.8531 127.45 54.3745C126.755 54.8531 126.582 55.7916 127.074 56.4767C126.582 55.7916 125.618 55.6321 124.914 56.1013ZM127.016 82.8099C126.736 82.8099 126.505 82.5847 126.505 82.3125C126.505 82.0404 126.736 81.8151 127.016 81.8151C127.295 81.8151 127.527 82.0404 127.527 82.3125C127.527 82.5847 127.305 82.8099 127.016 82.8099ZM127.218 67.9635C126.447 67.9635 125.81 67.3535 125.81 66.5933C125.81 65.8519 126.437 65.2419 127.218 65.2419C127.999 65.2419 128.626 65.8519 128.626 66.5933C128.626 67.3628 127.999 67.9635 127.218 67.9635Z" fill="white"/>
<path d="M175.162 48.6123C167.872 48.6123 163.205 52.46 161.711 56.2232L161.094 50.8365C161.007 50.0669 160.563 49.6352 159.686 49.6352H156.436C155.559 49.6352 155.115 50.0669 155.115 50.9209V108.242C155.115 109.096 155.559 109.528 156.436 109.528H161.19C162.067 109.528 162.501 109.096 162.501 108.242V64.6037C162.501 58.194 166.195 55.022 173.668 55.022C178.586 55.022 181.749 56.0449 183.156 58.1846C184.651 60.3243 185.355 64.5943 185.355 71.0134C185.355 77.2542 184.651 81.4491 183.156 83.6732C181.749 85.8974 178.672 87.0142 173.841 87.0142C170.302 87.0142 167.506 86.0851 165.52 84.8463V90.6366C168.326 92.4854 171.556 93.4332 175.249 93.4332C187.467 93.4332 192.741 89.5761 192.741 71.0134C192.741 52.6289 187.467 48.6123 175.162 48.6123Z" fill="white"/>
<path d="M210.677 49.6353H205.933C205.055 49.6353 204.612 50.0669 204.612 50.9209V91.1246C204.612 91.9786 205.046 92.4103 205.933 92.4103H210.677C211.555 92.4103 211.998 91.988 211.998 91.1246V50.9209C211.998 50.0669 211.555 49.6353 210.677 49.6353Z" fill="white"/>
<path d="M262.45 51.1837L230.455 91.6502C230.098 92.1663 229.577 92.4197 228.864 92.4197H223.242C222.191 92.4197 221.834 91.8191 222.538 90.8806L237.966 71.2574L222.711 51.1837C222.094 50.2453 222.538 49.6353 223.589 49.6353H229.307C230.011 49.6353 230.532 49.898 230.889 50.4142L242.267 65.7862L254.359 50.4142C254.716 49.898 255.237 49.6353 255.941 49.6353H261.659C262.71 49.6353 263.154 50.2453 262.45 51.1837Z" fill="white"/>
<path d="M262.103 92.4107H256.568C255.864 92.4107 255.333 92.1573 254.899 91.5567L244.813 77.3203L248.998 72.0273L262.99 90.8717C263.597 91.8195 263.154 92.4107 262.103 92.4107Z" fill="white"/>
<path d="M326.179 52.6289C322.93 49.4663 318.889 48.6123 311.503 48.6123C304.203 48.6123 300.163 49.3818 296.913 52.46C293.664 55.4537 292.429 60.756 292.429 69.7465C292.429 80.0132 293.75 86.0851 297.26 89.4166C300.78 92.5792 304.55 93.4426 311.85 93.4426C318.089 93.4426 323.807 92.4103 328.995 90.4489V86.1695C328.995 85.2311 328.465 84.8932 327.5 85.0528C322.312 86.3385 316.951 87.0235 311.503 87.0235C306.489 87.0235 303.326 86.0851 301.831 84.2832C300.336 82.4908 299.632 78.812 299.632 73.4158V67.1751C299.546 62.2106 300.25 58.9635 301.744 57.4245C303.239 55.8009 306.402 55.0314 311.406 55.0314C316.421 55.0314 319.584 55.8009 321.078 57.4245C322.573 58.9635 323.277 62.2106 323.277 67.2595L322.129 67.4285C320.461 67.5129 316.237 67.7757 311.58 67.7757C308.726 67.7757 305.727 67.6818 302.651 67.4472V73.4252L302.766 73.5472L312.727 73.9414C319.14 73.9414 324.771 73.5942 329.516 72.9091C330.306 72.8246 330.75 72.3085 330.75 71.5389V70.4222C330.76 61.1877 329.612 55.7165 326.179 52.6289Z" fill="white"/>
<path d="M402.927 52.8076C399.851 49.645 396.244 48.791 389.649 48.791C382.966 48.791 379.273 51.4469 377.258 53.8399C375.763 55.5479 375.502 56.0641 375.406 56.4958C374.181 54.0182 372.504 52.1319 370.305 50.8462C368.106 49.4761 364.683 48.791 360.016 48.791C352.9 48.791 348.329 52.0381 346.477 56.4958L346.121 50.9307C346.034 50.0767 345.504 49.645 344.713 49.645H344.269C343.392 49.645 342.958 50.0767 342.958 50.9307V91.1344C342.958 91.9884 343.392 92.4201 344.269 92.4201H345.59C346.468 92.4201 346.911 91.9978 346.911 91.1344V65.7209C346.911 56.7398 351.309 52.207 360.006 52.207C365.368 52.207 368.887 53.2299 370.556 55.2007C372.224 57.1621 373.111 60.9347 373.111 66.3215V91.125C373.111 91.979 373.545 92.4107 374.423 92.4107H375.483C376.361 92.4107 376.795 91.9884 376.795 91.125V65.7209C376.795 56.4864 380.044 52.207 389.629 52.207C395.251 52.207 398.944 53.4927 400.622 55.9702C402.29 58.4478 403.081 63.4967 402.994 71.0232V91.125C402.994 91.979 403.428 92.4107 404.315 92.4107H405.636C406.514 92.4107 406.948 91.9884 406.948 91.125V71.0232C407.054 61.5353 406.003 55.9702 402.927 52.8076Z" fill="white"/>
<path d="M453.205 53.1451C450.399 50.2359 445.471 48.7812 438.528 48.7812C431.229 48.7812 427.362 49.5508 424.112 52.5445C420.863 55.5382 419.628 60.8405 419.628 69.7371C419.628 80.0039 421.123 86.3291 424.643 89.5011C428.239 92.5792 431.846 93.2643 438.528 93.2643C446.349 93.2643 452.24 92.3259 456.107 90.4396V88.7316C456.107 87.6148 455.577 87.2769 454.613 87.6992C449.955 89.1539 444.594 89.8389 438.528 89.8389C432.289 89.8389 428.239 88.6377 426.398 86.2446C424.546 83.8516 423.582 78.9716 423.582 71.6985V68.2731C423.582 61.7696 424.112 58.438 426.224 55.7822C428.423 53.0512 432.116 52.1879 438.528 52.1879C444.767 52.1879 448.817 53.3046 450.659 55.5288C452.51 57.6685 453.475 61.9479 453.475 68.3576L451.98 68.5265C450.129 68.7892 444.594 69.0426 438.528 69.0426C434.71 69.0426 430.718 68.8737 426.61 68.5452V71.6985L426.812 71.9612C429.821 72.2052 434.69 72.468 438.441 72.468C445.211 72.468 451.103 72.1208 456.29 71.3512C457.081 71.1823 457.438 70.6662 457.438 69.8966V69.7277C457.428 61.5349 456.02 55.9699 453.205 53.1451Z" fill="white"/>
<path d="M493.55 89.3324C489.684 89.6797 486.26 89.8486 483.271 89.8486C480.542 89.8486 479.578 88.8163 479.578 85.4847V53.0609H493.116C493.994 53.0609 494.438 52.6292 494.438 51.7752V50.9212C494.438 50.0672 494.004 49.6355 493.116 49.6355H479.665V35.521C479.665 34.667 479.231 34.2354 478.344 34.2354H477.032C476.155 34.2354 475.711 34.667 475.711 35.521V49.6355H467.621C466.743 49.6355 466.3 50.0672 466.3 50.9212V51.7752C466.3 52.6292 466.743 53.0609 467.621 53.0609H475.624V85.4847C475.624 91.2187 478.266 93.274 483.271 93.274C488.459 93.274 492.326 92.9267 494.871 92.3355L494.958 91.1343V90.5337C494.968 89.5952 494.524 89.2574 493.55 89.3324Z" fill="white"/>
<path d="M534.349 52.2915C531.89 49.9829 527.136 48.791 520.194 48.791C515.536 48.791 510.879 49.5606 506.308 51.1841C505.604 51.4375 505.257 51.9536 505.257 52.7232V53.2299C505.257 54.2622 505.778 54.6001 506.751 54.3467C511.505 52.8921 515.98 52.207 520.203 52.207C526.182 52.207 529.962 53.061 531.63 54.7784C533.298 56.4864 534.176 60.4185 534.176 66.5842V87.3899C534.176 89.4921 535.121 92.4107 536.288 92.4107H536.818C537.695 92.4107 538.139 91.9884 538.139 91.125V66.4904C538.129 59.3112 536.895 54.6001 534.349 52.2915ZM506.308 70.7698C503.936 72.4778 502.711 75.7342 502.711 80.5204C502.711 89.5015 508.863 93.2741 517.744 93.2741C521.437 93.2741 524.861 92.589 527.937 91.2189C529.152 90.6558 530.222 90.1115 531.158 89.5672V86.4796C528.554 88.0938 524.109 89.8487 517.744 89.8487C510.184 89.8487 506.404 86.7612 506.404 80.5204C506.404 76.7572 507.282 74.3641 509.037 73.2473C510.792 72.1306 514.581 71.361 520.464 71.0232L531.148 70.3569V66.7719L520.541 67.4382C513.424 67.8605 508.68 68.9773 506.308 70.7698Z" fill="white"/>
<path d="M214.66 44.7271C211.207 41.3674 205.595 41.3674 202.134 44.7365C205.595 41.3674 205.595 35.9056 202.143 32.5459C205.595 35.9056 211.198 35.915 214.66 32.5459C211.198 35.9244 211.207 41.3768 214.66 44.7271Z" fill="white"/>
<path d="M279.151 49.6353H274.407C273.529 49.6353 273.086 50.0669 273.086 50.9209V91.1246C273.086 91.9786 273.52 92.4103 274.407 92.4103H279.151C280.029 92.4103 280.472 91.988 280.472 91.1246V50.9209C280.472 50.0669 280.038 49.6353 279.151 49.6353Z" fill="white"/>
<path d="M283.134 44.7271C279.681 41.3674 274.069 41.3674 270.607 44.7365C274.069 41.3674 274.069 35.9056 270.617 32.5459C274.069 35.9056 279.672 35.915 283.134 32.5459C279.672 35.9244 279.681 41.3768 283.134 44.7271Z" fill="white"/>
</svg>
