<svg width="377" height="86" viewBox="0 0 377 86" fill="none" xmlns="http://www.w3.org/2000/svg">
<path d="M80.5501 3.45982C78.8065 3.45982 77.386 4.85566 77.386 6.57566C77.386 4.85566 75.9655 3.45982 74.2219 3.45982C75.9655 3.45982 77.386 2.07059 77.386 0.350586C77.386 2.07059 78.8065 3.45982 80.5501 3.45982Z" fill="white"/>
<path d="M65.9211 7.15786C65.5441 7.15786 65.2345 6.86017 65.2345 6.48971C65.2345 6.11925 65.5441 5.81494 65.9211 5.81494C66.2981 5.81494 66.6078 6.11925 66.6078 6.48971C66.6078 6.86017 66.2981 7.15786 65.9211 7.15786Z" fill="white"/>
<path d="M74.4238 10.3199C74.0738 10.3199 73.791 10.0487 73.791 9.71132C73.791 9.36732 74.0738 9.08948 74.4238 9.08948C74.7739 9.08948 75.0567 9.36732 75.0567 9.71132C75.0567 10.0487 74.7739 10.3199 74.4238 10.3199Z" fill="white"/>
<path d="M60.522 4.45876C60.2392 4.45876 60.0103 4.24045 60.0103 3.96261C60.0103 3.68476 60.2392 3.45984 60.522 3.45984C60.8047 3.45984 61.0336 3.68476 61.0336 3.96261C61.0336 4.24045 60.798 4.45876 60.522 4.45876Z" fill="white"/>
<path d="M64.9584 1.87872C64.5276 1.87872 64.1775 1.54133 64.1775 1.12456C64.1775 0.701178 64.5276 0.357178 64.9584 0.357178C65.3893 0.357178 65.7394 0.701178 65.7394 1.12456C65.7394 1.54133 65.3893 1.87872 64.9584 1.87872Z" fill="white"/>
<path d="M92.4996 39.5137C91.5504 36.4508 90.2848 33.5268 88.7431 30.7748C83.7546 21.8837 75.8376 14.8052 66.2847 10.7698C63.4706 12.384 62.1242 14.0444 62.0502 14.1371C62.0906 14.0444 62.9657 12.0863 65.5239 10.4589C66.6011 9.77752 67.9744 9.14906 69.7046 8.73891C67.9812 9.10937 66.2914 9.56583 64.642 10.1149C58.2869 12.1988 52.5107 15.5197 47.603 19.78C47.677 19.6212 51.4336 15.2683 57.2838 12.1194C48.8619 12.2914 34.583 19.9586 33.0885 20.7723C34.583 19.8131 48.8754 10.8955 62.481 9.35414C57.9907 7.90537 53.2109 7.10491 48.2291 7.07183C23.0307 6.90644 2.08023 26.7195 1.32623 51.4743C1.11753 58.2617 2.42357 64.7315 4.92119 70.5861C4.92793 70.5994 4.93466 70.6126 4.94139 70.6258C5.78291 72.5906 6.7658 74.4892 7.86987 76.3084C7.86987 76.3084 7.87661 76.3084 7.87661 76.3151C9.5731 79.12 11.5793 81.7331 13.8346 84.1014C15.1944 85.5303 17.3824 85.9272 19.1126 84.968C19.126 84.9614 19.1327 84.9548 19.1462 84.9481C20.2032 84.3461 21.1053 83.4861 21.7381 82.4144C22.1622 81.6934 22.6133 80.926 23.0509 80.152C24.9157 76.884 27.3056 68.2443 27.9653 66.6169C28.6183 64.9829 29.1502 63.7921 29.6484 63.3224C30.1533 62.8528 31.8161 58.4734 32.22 57.4017C32.624 56.33 32.3883 56.2308 31.5805 55.6684C30.7726 55.1061 29.884 55.0598 29.5137 55.3509C29.1434 55.6486 27.6826 56.0786 26.6458 55.9463C25.6023 55.814 24.7676 56.1448 24.0741 56.4028C23.3875 56.6674 23.1518 56.7004 22.4315 56.7666C21.7112 56.8328 20.5734 57.8383 20.2166 57.9574C20.0214 58.0235 19.604 57.9772 19.2809 57.9177L9.69428 61.7348L10.7445 63.1438C10.9263 63.3886 10.7445 63.7326 10.4348 63.726L8.44211 63.6797L7.27744 65.2674C7.09568 65.5188 6.70521 65.4526 6.61769 65.1615L6.03873 63.2828L4.14027 62.6808C3.84405 62.5881 3.78346 62.2044 4.03928 62.0324L5.67519 60.9144L5.66846 58.9563C5.66846 58.652 6.01853 58.48 6.26762 58.6652L7.85641 59.8494L9.74814 59.2408C10.0444 59.1415 10.3204 59.4194 10.2194 59.7104L9.71448 61.1195L19.5299 57.2098C19.779 56.9849 20.0349 56.76 20.1628 56.6211C20.4657 56.2903 20.6475 55.5163 20.1156 55.7809C19.5771 56.0455 18.8029 56.2638 18.3855 56.0984C17.9614 55.9331 18.0489 55.6883 18.8029 55.4038C19.5569 55.126 22.3776 53.492 24.128 52.8834C25.8716 52.2748 27.2719 52.7841 28.3894 52.6717C28.9549 52.6121 29.0357 51.6992 30.2071 51.7852C31.3785 51.8712 31.2775 51.2891 32.1325 51.5008C32.9875 51.7124 41.5239 54.352 47.5289 58.7115C47.5289 58.7115 48.8215 57.7523 49.1446 56.9783C49.4611 56.2043 49.764 55.5097 50.2824 54.6695C50.8008 53.8294 51.1912 54.1469 51.0902 53.1546C50.9893 52.1689 50.5853 51.6 50.5853 50.6474C50.5853 49.6881 50.4372 49.192 49.9323 48.8017C49.4274 48.4048 47.6501 47.214 45.3006 46.5392C42.9511 45.8644 43.4694 43.4631 43.6243 43.0794C43.7724 42.6891 44.008 42.2392 43.8868 41.8423C43.7589 41.4454 43.456 41.3064 43.5098 41.0286C43.5637 40.7441 43.9205 40.5589 43.9744 40.2612C44.0215 39.9635 43.8532 38.9249 44.1629 38.4883C44.4725 38.0517 44.8899 37.9921 44.8428 37.6481C44.7889 37.2975 44.3312 36.8609 44.5197 36.2324C44.7149 35.604 44.9842 35.3261 45.9267 35.2137C46.8692 35.1012 48.3772 34.8631 48.7811 33.2291C49.185 31.5951 48.6801 30.4241 48.8686 29.4517C49.0571 28.4792 49.1918 28.1154 50.1949 27.176C51.2047 26.23 52.5107 24.7812 53.7696 24.4504C55.0353 24.1197 57.6137 24.9664 58.9938 24.7018C60.3739 24.4372 60.623 24.4041 61.754 24.8209C62.8782 25.2311 63.6322 25.7603 64.4535 25.7934C65.2749 25.8264 66.2039 25.9918 66.9579 26.4681C67.7119 26.9511 68.4659 27.606 68.9035 27.7912C69.3411 27.9698 69.7248 28.1352 70.1691 28.6314C70.6067 29.1275 71.3271 29.584 71.7377 30.2191C72.1551 30.8541 72.6937 31.6281 72.8956 32.1772C73.0976 32.7263 73.1111 32.9049 73.4409 33.1563C73.7641 33.4011 74.3431 34.1354 74.7335 34.228C75.124 34.3272 75.1172 34.3074 76.356 33.5797C77.5947 32.852 78.4227 32.6072 79.1296 32.5411C79.8298 32.4749 80.9069 31.2709 81.0617 30.7748C81.0617 30.7748 81.0011 31.4694 80.7924 31.6678C80.9069 31.6348 82.9131 31.0658 83.795 32.508C84.7038 33.9898 84.6769 34.0428 84.9529 34.8366C85.2289 35.6304 85.128 36.5434 84.724 37.0395C84.3201 37.5357 83.8892 37.8797 84.1451 38.5015C84.4009 39.1234 84.751 40.3803 84.4951 41.5181C84.246 42.656 83.4651 43.5755 82.8659 43.9989C82.2735 44.4157 82.8256 44.3892 82.0985 44.6009C81.3647 44.8126 80.5501 44.9184 80.779 45.2823C81.0011 45.6528 81.4455 45.4411 81.8427 45.8777C82.2466 46.3143 82.5899 46.5128 83.1689 46.3937C83.7479 46.2812 84.246 45.5138 84.5153 45.6594C84.7846 45.8049 83.9768 47.1147 82.8727 47.0552C81.7619 46.9891 81.3983 46.4731 80.853 46.4201C80.3077 46.3738 79.5268 46.4797 79.9442 46.9295C80.3683 47.386 80.7588 47.8226 80.2741 47.7895C79.7894 47.7564 78.5439 46.4466 77.6216 46.4334C76.6993 46.4268 74.2421 46.5392 74.3902 45.838C74.5383 45.1301 75.8645 44.6406 76.1877 44.5149C76.5175 44.3892 75.6491 43.9857 75.8443 43.7211C76.0463 43.4564 77.0696 43.1654 76.8811 42.8809C76.6926 42.5964 76.2146 42.6229 76.2886 42.3848C76.3627 42.1466 76.5983 42.1664 76.5983 41.9614C76.5983 41.7629 76.1069 41.6306 76.2684 41.3924C76.4368 41.1543 77.0023 40.6714 77.0898 39.5997C77.1773 38.5214 76.7868 36.9337 75.4741 36.9469C74.168 36.9601 74.269 37.4563 74.5316 37.8995C74.7941 38.3428 75.4539 39.0506 74.4104 41.1675C73.3669 43.2778 72.2022 44.6803 70.5663 45.7454C68.9304 46.8104 69.6104 47.1544 68.6275 47.4786C67.6446 47.8027 66.8636 48.6892 65.9817 49.2648C65.2479 49.7411 64.5141 50.6077 64.2314 52.0829C69.4623 51.6992 70.1489 55.212 70.223 56.5152C70.2365 56.6806 70.4384 56.7534 70.5529 56.6343C72.1551 54.8614 79.2441 47.3264 82.4082 48.9472C85.9627 50.7532 80.7184 56.8923 80.7184 56.8923C81.7282 56.6211 83.492 56.7666 83.317 58.2088C83.142 59.6443 80.6241 64.0964 78.5574 64.3214C76.4906 64.5397 74.6325 61.0732 73.6497 62.3434C73.0168 63.1571 73.9997 65.1086 74.7806 66.4251C75.5616 67.7415 75.7366 70.8772 74.5787 70.5068C73.4208 70.1363 72.0339 68.9455 71.5829 67.5629C71.2934 66.6831 70.876 66.7228 70.7279 66.7691C70.5798 66.8154 70.6269 67.3115 70.8289 68.1781C71.0308 69.0448 71.4078 70.6523 71.7444 72.8949C72.0811 75.1375 72.9562 80.9723 75.0836 82.4806C76.4368 83.4332 77.5004 84.3131 78.3285 85.1069L78.3419 85.1201C79.0892 85.8346 80.2875 85.828 81.0281 85.1003C89.3692 76.8244 94.526 65.4394 94.526 52.8701C94.5193 48.2195 93.8191 43.7343 92.4996 39.5137ZM39.1407 15.2088C38.8781 15.2088 38.6627 15.0037 38.6627 14.7457C38.6627 14.4877 38.8781 14.2892 39.1407 14.2892C39.4032 14.2892 39.6187 14.4943 39.6187 14.7457C39.6187 15.0037 39.4032 15.2088 39.1407 15.2088ZM40.7564 8.87783C41.093 8.87783 41.3623 9.14906 41.3623 9.47321C41.3623 9.79737 41.0863 10.0752 40.7564 10.0752C40.4198 10.0752 40.1438 9.79737 40.1438 9.47321C40.1438 9.14906 40.4131 8.87783 40.7564 8.87783ZM53.4599 9.47983C51.2316 9.68491 49.0167 10.0024 46.8288 10.4324C44.9976 10.7897 43.1934 11.2263 41.4027 11.7291C40.6891 11.9341 39.9755 12.1524 39.2686 12.3774C38.9185 12.4898 38.5617 12.6089 38.2116 12.728C37.5115 12.9728 36.8114 13.2241 36.1179 13.4888C41.7326 10.7169 47.4818 9.61875 53.4599 9.47983ZM7.80928 46.182C7.29764 46.182 6.89371 45.7784 6.89371 45.2889C6.89371 44.7928 7.30437 44.3958 7.80928 44.3958C8.31419 44.3958 8.71812 44.7994 8.71812 45.2889C8.71812 45.7851 8.31419 46.182 7.80928 46.182ZM14.8511 26.7328C15.1069 26.7328 15.3156 26.9378 15.3156 27.1892C15.3156 27.4406 15.1069 27.6457 14.8511 27.6457C14.5953 27.6457 14.3866 27.4406 14.3866 27.1892C14.3866 26.9444 14.602 26.7328 14.8511 26.7328ZM14.2452 40.3406C14.2452 38.9911 13.1344 37.8995 11.7678 37.8995C13.1344 37.8995 14.2452 36.808 14.2452 35.4651C14.2452 36.8146 15.3627 37.8995 16.7226 37.8995C15.3627 37.9061 14.2452 38.9977 14.2452 40.3406ZM28.376 19.3566C28.7799 19.3566 29.1031 19.6808 29.1031 20.0711C29.1031 20.468 28.7732 20.7921 28.376 20.7921C27.9653 20.7921 27.6422 20.468 27.6422 20.0711C27.6422 19.6808 27.9653 19.3566 28.376 19.3566ZM20.0281 22.4063C19.6175 22.4063 19.2876 22.0821 19.2876 21.6786C19.2876 21.2751 19.6175 20.9443 20.0281 20.9443C20.4388 20.9443 20.7687 21.2751 20.7687 21.6786C20.7687 22.0821 20.4388 22.4063 20.0281 22.4063ZM28.9684 34.4397C28.6991 35.1674 28.4904 35.9017 27.8845 35.9149C27.8845 35.9149 28.2817 37.9921 26.4169 39.0175C26.3227 39.0638 26.215 39.0043 26.2082 38.8984C26.188 38.528 26.1746 37.7606 26.3361 37.2711C26.3496 37.2512 26.3159 37.2314 26.3025 37.2512C26.0197 37.5489 24.9897 38.5809 24.4309 38.5544C23.7712 38.528 23.7847 37.8201 23.6433 37.7474C23.4952 37.6746 23.5894 37.3769 23.4211 37.2578C23.2528 37.1388 23.098 36.8609 23.172 36.7021C23.2461 36.5368 23.172 36.2258 23.199 36.0538C23.2259 35.8818 23.5558 36.1531 23.576 35.5775C23.5962 35.002 23.8991 34.6712 24.7339 34.6977C24.7339 34.6977 23.9193 34.5521 23.9866 33.8708C24.0472 33.1894 24.3569 32.8123 24.3569 32.2698C24.3636 31.734 24.1549 29.8023 24.8147 29.7758C25.4744 29.7494 27.043 32.7924 27.1238 34.2611C27.1238 34.2611 27.3998 33.9766 27.4739 34.0295C27.5479 34.0824 27.4402 34.4331 27.4402 34.4331C27.4402 34.4331 29.7561 31.7538 30.1533 32.0184C30.5437 32.2897 29.231 33.712 28.9684 34.4397ZM31.8228 46.8568C31.8228 45.8843 31.015 45.0904 30.0321 45.0904C31.0217 45.0904 31.8228 44.3032 31.8228 43.3308C31.8228 44.3032 32.624 45.0904 33.6136 45.0904C32.624 45.0904 31.8228 45.8777 31.8228 46.8568ZM38.8512 34.2611C38.5415 34.2611 38.2992 34.0163 38.2992 33.7186C38.2992 33.4143 38.5415 33.1695 38.8512 33.1695C39.1609 33.1695 39.41 33.4143 39.41 33.7186C39.41 34.0163 39.1609 34.2611 38.8512 34.2611ZM28.1269 31.2114C33.5732 23.9741 39.962 20.0711 47.5895 17.4051C40.1774 20.554 33.5126 25.3104 28.1269 31.2114ZM57.1694 20.2629C56.6308 20.2629 56.1865 19.8329 56.1865 19.2971C56.1865 18.7744 56.6241 18.3444 57.1694 18.3444C57.7147 18.3444 58.1523 18.7744 58.1523 19.2971C58.1523 19.8395 57.7147 20.2629 57.1694 20.2629ZM69.5498 18.3511C69.1526 18.3511 68.8227 18.0335 68.8227 17.6432C68.8227 17.2463 69.1526 16.9221 69.5498 16.9221C69.9537 16.9221 70.2836 17.2463 70.2836 17.6432C70.2836 18.0335 69.9537 18.3511 69.5498 18.3511ZM76.7599 26.5409C76.7599 25.4758 75.878 24.6158 74.8008 24.6158C75.878 24.6158 76.7599 23.7558 76.7599 22.6908C76.7599 23.7558 77.6418 24.6158 78.7189 24.6158C77.6418 24.6092 76.7599 25.4758 76.7599 26.5409ZM83.2093 68.542C82.765 68.542 82.4014 68.1848 82.4014 67.7481C82.4014 67.3115 82.7582 66.9543 83.2093 66.9543C83.6536 66.9543 84.0172 67.3049 84.0172 67.7481C84.0172 68.1848 83.6536 68.542 83.2093 68.542ZM87.2082 39.5468C87.6996 39.2094 87.8141 38.5544 87.4775 38.0715C87.8208 38.5544 88.494 38.6669 88.9787 38.3295C88.494 38.6669 88.3728 39.3284 88.7162 39.8114C88.3728 39.3284 87.6996 39.216 87.2082 39.5468ZM88.6758 58.3741C88.4806 58.3741 88.319 58.2154 88.319 58.0235C88.319 57.8317 88.4806 57.6729 88.6758 57.6729C88.871 57.6729 89.0326 57.8317 89.0326 58.0235C89.0326 58.2154 88.8778 58.3741 88.6758 58.3741ZM88.8172 47.9086C88.2786 47.9086 87.8343 47.4786 87.8343 46.9428C87.8343 46.4201 88.2719 45.9901 88.8172 45.9901C89.3625 45.9901 89.8001 46.4201 89.8001 46.9428C89.8001 47.4852 89.3625 47.9086 88.8172 47.9086Z" fill="white"/>
<path d="M122.289 34.2677C117.2 34.2677 113.942 36.98 112.898 39.6328L112.467 35.8355C112.407 35.2931 112.097 34.9888 111.484 34.9888H109.216C108.603 34.9888 108.293 35.2931 108.293 35.8951V76.3019C108.293 76.9039 108.603 77.2082 109.216 77.2082H112.535C113.147 77.2082 113.45 76.9039 113.45 76.3019V45.5403C113.45 41.022 116.028 38.786 121.246 38.786C124.679 38.786 126.887 39.5071 127.87 41.0154C128.914 42.5237 129.405 45.5337 129.405 50.0586C129.405 54.4579 128.914 57.4149 127.87 58.9828C126.887 60.5506 124.74 61.3379 121.367 61.3379C118.896 61.3379 116.944 60.6829 115.557 59.8097V63.8914C117.516 65.1946 119.772 65.8628 122.35 65.8628C130.88 65.8628 134.562 63.1439 134.562 50.0586C134.562 37.0991 130.88 34.2677 122.289 34.2677Z" fill="white"/>
<path d="M147.084 34.9888H143.772C143.159 34.9888 142.849 35.2931 142.849 35.8951V64.2354C142.849 64.8374 143.152 65.1417 143.772 65.1417H147.084C147.696 65.1417 148.006 64.844 148.006 64.2354V35.8951C148.006 35.2931 147.696 34.9888 147.084 34.9888Z" fill="white"/>
<path d="M183.229 36.0803L160.891 64.6058C160.642 64.9697 160.279 65.1483 159.781 65.1483H155.856C155.122 65.1483 154.873 64.7249 155.364 64.0634L166.136 50.2306L155.486 36.0803C155.055 35.4188 155.364 34.9888 156.098 34.9888H160.09C160.582 34.9888 160.945 35.174 161.194 35.5378L169.138 46.3738L177.58 35.5378C177.83 35.174 178.193 34.9888 178.685 34.9888H182.677C183.411 34.9888 183.72 35.4188 183.229 36.0803Z" fill="white"/>
<path d="M182.986 65.1417H179.122C178.631 65.1417 178.26 64.9631 177.957 64.5397L170.916 54.5041L173.837 50.7731L183.606 64.0568C184.03 64.7249 183.72 65.1417 182.986 65.1417Z" fill="white"/>
<path d="M227.721 37.0991C225.453 34.8697 222.632 34.2677 217.475 34.2677C212.379 34.2677 209.558 34.8102 207.289 36.98C205.021 39.0903 204.159 42.828 204.159 49.1655C204.159 56.4028 205.081 60.6829 207.532 63.0314C209.989 65.2608 212.621 65.8694 217.717 65.8694C222.073 65.8694 226.065 65.1417 229.687 63.7591V60.7425C229.687 60.0809 229.317 59.8428 228.644 59.9552C225.022 60.8615 221.279 61.3445 217.475 61.3445C213.974 61.3445 211.766 60.6829 210.723 59.4128C209.679 58.1492 209.188 55.556 209.188 51.7522V47.3529C209.127 43.8534 209.619 41.5645 210.662 40.4795C211.706 39.3351 213.914 38.7926 217.408 38.7926C220.909 38.7926 223.117 39.3351 224.16 40.4795C225.204 41.5645 225.695 43.8534 225.695 47.4125L224.894 47.5315C223.729 47.5911 220.781 47.7763 217.529 47.7763C215.536 47.7763 213.443 47.7102 211.295 47.5448V51.7588L211.376 51.8448L218.33 52.1226C222.807 52.1226 226.739 51.8779 230.051 51.3949C230.603 51.3354 230.912 50.9715 230.912 50.4291V49.6419C230.919 43.1323 230.118 39.2755 227.721 37.0991Z" fill="white"/>
<path d="M281.303 37.2247C279.155 34.9953 276.637 34.3933 272.032 34.3933C267.367 34.3933 264.789 36.2655 263.382 37.9524C262.338 39.1564 262.156 39.5202 262.089 39.8245C261.234 38.0781 260.063 36.7484 258.528 35.8421C256.993 34.8762 254.603 34.3933 251.345 34.3933C246.376 34.3933 243.185 36.6822 241.893 39.8245L241.644 35.9016C241.583 35.2996 241.213 34.9953 240.661 34.9953H240.351C239.738 34.9953 239.435 35.2996 239.435 35.9016V64.2419C239.435 64.8439 239.738 65.1482 240.351 65.1482H241.273C241.886 65.1482 242.196 64.8505 242.196 64.2419V46.3275C242.196 39.9965 245.265 36.8013 251.338 36.8013C255.081 36.8013 257.538 37.5224 258.703 38.9116C259.867 40.2942 260.487 42.9536 260.487 46.7508V64.2353C260.487 64.8373 260.79 65.1416 261.402 65.1416H262.143C262.756 65.1416 263.058 64.8439 263.058 64.2353V46.3275C263.058 39.8179 265.327 36.8013 272.019 36.8013C275.944 36.8013 278.522 37.7076 279.694 39.4541C280.858 41.2005 281.41 44.7596 281.35 50.0652V64.2353C281.35 64.8373 281.653 65.1416 282.272 65.1416H283.194C283.807 65.1416 284.11 64.8439 284.11 64.2353V50.0652C284.184 43.377 283.45 39.4541 281.303 37.2247Z" fill="white"/>
<path d="M316.404 37.4629C314.445 35.4121 311.005 34.3867 306.158 34.3867C301.061 34.3867 298.362 34.9292 296.093 37.0395C293.824 39.1498 292.963 42.8875 292.963 49.1589C292.963 56.3961 294.006 60.8549 296.463 63.0909C298.974 65.2607 301.492 65.7436 306.158 65.7436C311.617 65.7436 315.731 65.0821 318.43 63.7524V62.5484C318.43 61.7612 318.06 61.523 317.387 61.8207C314.135 62.8461 310.392 63.329 306.158 63.329C301.802 63.329 298.974 62.4823 297.689 60.7953C296.396 59.1084 295.723 55.6684 295.723 50.5415V48.1269C295.723 43.5424 296.093 41.1939 297.567 39.3218C299.102 37.3967 301.681 36.7881 306.158 36.7881C310.513 36.7881 313.341 37.5753 314.627 39.1432C315.919 40.6515 316.592 43.6681 316.592 48.1864L315.549 48.3055C314.256 48.4907 310.392 48.6693 306.158 48.6693C303.492 48.6693 300.705 48.5503 297.837 48.3187V50.5415L297.978 50.7267C300.079 50.8987 303.478 51.084 306.097 51.084C310.823 51.084 314.936 50.8392 318.558 50.2967C319.11 50.1776 319.359 49.8138 319.359 49.2713V49.1523C319.353 43.377 318.37 39.4541 316.404 37.4629Z" fill="white"/>
<path d="M344.571 62.9719C341.872 63.2166 339.482 63.3357 337.395 63.3357C335.49 63.3357 334.816 62.608 334.816 60.2595V37.4034H344.268C344.881 37.4034 345.191 37.0991 345.191 36.4971V35.8951C345.191 35.2931 344.888 34.9888 344.268 34.9888H334.877V25.0392C334.877 24.4372 334.574 24.1329 333.955 24.1329H333.039C332.426 24.1329 332.117 24.4372 332.117 25.0392V34.9888H326.469C325.856 34.9888 325.546 35.2931 325.546 35.8951V36.4971C325.546 37.0991 325.856 37.4034 326.469 37.4034H332.056V60.2595C332.056 64.3015 333.901 65.7503 337.395 65.7503C341.017 65.7503 343.716 65.5056 345.494 65.0888L345.554 64.242V63.8186C345.561 63.1571 345.251 62.9189 344.571 62.9719Z" fill="white"/>
<path d="M373.055 36.8608C371.338 35.2335 368.019 34.3933 363.172 34.3933C359.921 34.3933 356.669 34.9358 353.478 36.0802C352.986 36.2588 352.744 36.6227 352.744 37.1652V37.5224C352.744 38.2501 353.108 38.4882 353.788 38.3096C357.107 37.2842 360.23 36.8013 363.179 36.8013C367.353 36.8013 369.992 37.4033 371.157 38.6139C372.321 39.8179 372.934 42.5898 372.934 46.9361V61.6024C372.934 63.0842 373.594 65.1416 374.408 65.1416H374.778C375.391 65.1416 375.701 64.8439 375.701 64.2353V46.8699C375.694 41.8092 374.832 38.4882 373.055 36.8608ZM353.478 49.8865C351.822 51.0905 350.967 53.3861 350.967 56.7599C350.967 63.0908 355.262 65.7502 361.462 65.7502C364.041 65.7502 366.431 65.2673 368.578 64.3015C369.426 63.9045 370.174 63.5208 370.827 63.1372V60.9607C369.009 62.0985 365.905 63.3356 361.462 63.3356C356.184 63.3356 353.545 61.1592 353.545 56.7599C353.545 54.1072 354.158 52.4202 355.383 51.633C356.608 50.8458 359.254 50.3033 363.361 50.0652L370.82 49.5955V47.0684L363.415 47.5381C358.446 47.8358 355.134 48.623 353.478 49.8865Z" fill="white"/>
<path d="M149.864 31.5289C147.454 29.1606 143.536 29.1606 141.119 31.5355C143.536 29.1606 143.536 25.3104 141.126 22.9421C143.536 25.3104 147.447 25.3171 149.864 22.9421C147.447 25.3237 147.454 29.1672 149.864 31.5289Z" fill="white"/>
<path d="M194.889 34.9888H191.577C190.964 34.9888 190.654 35.2931 190.654 35.8951V64.2354C190.654 64.8374 190.957 65.1417 191.577 65.1417H194.889C195.501 65.1417 195.811 64.844 195.811 64.2354V35.8951C195.811 35.2931 195.508 34.9888 194.889 34.9888Z" fill="white"/>
<path d="M197.669 31.5289C195.259 29.1606 191.341 29.1606 188.924 31.5355C191.341 29.1606 191.341 25.3104 188.931 22.9421C191.341 25.3104 195.252 25.3171 197.669 22.9421C195.252 25.3237 195.259 29.1672 197.669 31.5289Z" fill="white"/>
</svg>
