<svg width="58" height="30" viewBox="0 0 58 30" fill="none" xmlns="http://www.w3.org/2000/svg">
<path d="M56 17C57.1046 17 58 16.1046 58 15C58 13.8954 57.1046 13 56 13L56 17ZM0.585781 13.5858C-0.195267 14.3668 -0.195267 15.6332 0.585781 16.4142L13.3137 29.1421C14.0948 29.9232 15.3611 29.9232 16.1421 29.1421C16.9232 28.3611 16.9232 27.0948 16.1421 26.3137L4.82842 15L16.1421 3.68629C16.9232 2.90524 16.9232 1.63891 16.1421 0.857861C15.3611 0.0768121 14.0948 0.0768119 13.3137 0.857861L0.585781 13.5858ZM56 13L2 13L2 17L56 17L56 13Z" fill="white"/>
</svg>
