<svg width="58" height="30" viewBox="0 0 58 30" fill="none" xmlns="http://www.w3.org/2000/svg">
<path d="M2 13C0.89543 13 0 13.8954 0 15C0 16.1046 0.89543 17 2 17V13ZM57.4142 16.4142C58.1953 15.6332 58.1953 14.3668 57.4142 13.5858L44.6863 0.857864C43.9052 0.0768156 42.6389 0.0768156 41.8579 0.857864C41.0768 1.63891 41.0768 2.90524 41.8579 3.68629L53.1716 15L41.8579 26.3137C41.0768 27.0948 41.0768 28.3611 41.8579 29.1421C42.6389 29.9232 43.9052 29.9232 44.6863 29.1421L57.4142 16.4142ZM2 17H56V13H2V17Z" fill="white"/>
</svg>
