<svg width="58" height="49" viewBox="0 0 58 49" fill="none" xmlns="http://www.w3.org/2000/svg">
<path d="M26.8876 17.8387C27.848 10.5784 29.2242 2.60872 22.756 1.58942C16.2878 0.570122 10.9284 12.9337 15.2254 22.5669C19.5225 32.2007 23.3543 34.7186 27.1766 36.16C30.9988 37.6015 34.3366 35.8144 36.1758 34.7827C38.0149 33.7503 40.2728 32.5588 42.6836 34.4404C45.0945 36.3227 51.697 38.8304 55.5781 35.5918C59.4593 32.3531 58.2196 30.4783 52.6704 32.0607C47.1206 33.6432 44.7846 35.2915 41.8235 32.6307C38.8631 29.97 36.4392 27.5971 31.5116 28.4074C26.5839 29.2176 26.8876 17.8381 26.8876 17.8381V17.8387Z" fill="#00EFE7"/>
<path d="M27.7916 25.6163C27.7916 25.6163 35.3788 27.5127 37.1641 30.7525C38.95 33.9923 37.0837 39.1415 41.5326 41.6685C45.982 44.1955 51.3182 43.8464 51.0496 46.536C50.7805 49.2257 43.7819 49.5803 40.698 43.6736C37.614 37.7669 36.61 36.2258 32.6246 35.5379C28.6392 34.8501 22.2503 34.0149 22.6906 23.4656C23.0951 13.7644 26.0198 0.394469 36.8049 0.0091865C48.8252 -0.42029 43.3224 14.3253 36.8004 19.8433C30.0902 25.5206 27.7916 25.6163 27.7916 25.6163Z" fill="#83EFE7"/>
<path d="M39.3699 11.9769C40.8289 7.87733 40.4845 4.01046 38.6007 3.34004C36.7169 2.66961 34.007 5.4495 32.548 9.54909C31.089 13.6487 31.4334 17.5155 33.3172 18.186C35.201 18.8564 37.9109 16.0765 39.3699 11.9769Z" fill="#D7FAF7"/>
<path d="M30.2178 9.63454C30.4685 8.18343 30.0647 6.90222 29.316 6.7729C28.5673 6.64358 27.7572 7.71512 27.5066 9.16623C27.2559 10.6173 27.6597 11.8985 28.4083 12.0279C29.157 12.1572 29.9672 11.0857 30.2178 9.63454Z" fill="#D7FAF7"/>
<path d="M28.4869 17.9954C29.1113 17.9008 29.4687 16.8434 29.2854 15.6337C29.102 14.424 28.4472 13.5201 27.8228 13.6148C27.1985 13.7094 26.841 14.7668 27.0244 15.9765C27.2078 17.1862 27.8626 18.0901 28.4869 17.9954Z" fill="#D7FAF7"/>
<path d="M31.8778 21.9722C31.9718 21.462 31.2465 20.9007 30.2577 20.7185C29.269 20.5363 28.3912 20.8022 28.2972 21.3125C28.2032 21.8227 28.9285 22.384 29.9173 22.5662C30.906 22.7484 31.7838 22.4825 31.8778 21.9722Z" fill="#D7FAF7"/>
<path d="M35.5536 32.9069C35.9394 32.0652 34.9296 30.7765 33.298 30.0285C31.6664 29.2804 30.0309 29.3563 29.645 30.198C29.2591 31.0397 30.269 32.3284 31.9006 33.0765C33.5322 33.8245 35.1677 33.7486 35.5536 32.9069Z" fill="#D7FAF7"/>
<path d="M21.6549 26.7066C21.6549 26.7066 26.8511 28.2387 28.5463 32.0003C30.2421 35.7619 28.361 42.0324 28.4409 41.8998C28.5208 41.7672 25.8074 33.8723 23.9666 32.4309C22.1257 30.9895 19.9126 29.0925 20.2894 26.9106C20.2894 26.9106 15.377 25.085 17.8219 22.5274C19.6786 20.5846 22.8917 25.0108 21.6549 26.7066Z" fill="#1A7CFF"/>
<path d="M9.3095 15.5202C10.5622 15.6754 12.2388 16.3984 12.2971 17.9016C12.3821 19.684 10.7656 20.2359 9.28117 20.1475C6.69355 19.9101 3.54103 19.2007 2.07129 16.8125C0.927903 14.6011 2.65431 12.741 4.77903 12.3218C8.31287 11.5982 12.0286 12.3478 15.2519 13.8771C18.6096 15.5003 19.6668 19.709 19.324 23.1725C19.2827 23.5102 18.7722 23.4558 18.8107 23.1136C19.1388 20.6166 18.6056 17.8602 16.984 15.8754C15.2746 13.9841 12.4915 13.4532 10.054 13.1122C8.36443 12.9269 6.62216 12.9308 5.03966 13.3343C2.01803 14.0142 2.29226 16.587 4.5082 18.1639C6.19778 19.4364 9.71859 20.505 11.4858 18.9713C12.6501 17.3061 10.8002 15.9598 9.31007 15.519L9.3095 15.5202Z" fill="#1A7CFF"/>
<path d="M7.32281 21.0836C8.70189 20.5096 10.417 20.9867 10.5609 22.6723C10.7258 24.2072 9.21069 25.1987 7.91716 25.5545C6.20436 26.0169 4.25981 26.1744 2.61556 25.4004C-0.475204 23.9137 -1.00837 20.5413 1.99741 18.6092C3.3102 17.7072 4.7941 17.1877 6.30407 16.7559C12.276 15.0822 17.1028 19.3742 19.5272 24.4837C19.6796 24.8259 19.1538 25.0474 19.0218 24.6882C17.1877 19.9798 12.4142 15.4902 7.02591 16.9253C4.42582 17.6183 -0.686542 19.7968 1.15092 23.2049C1.96851 24.6463 3.59633 25.6367 5.27967 25.6639C6.91033 25.7597 8.88434 25.2288 9.79995 23.8208C10.2323 23.1664 10.1603 22.2337 9.66736 21.6519C9.11097 21.0286 8.12736 21.0008 7.32394 21.0841L7.32281 21.0836Z" fill="#1A7CFF"/>
</svg>
